<svg id="Layer_1" data-name="Layer 1" xmlns="http://www.w3.org/2000/svg" viewBox="0 0 625.72 55.27"><defs><style>.cls-1{fill:#ca171e;}.cls-2{fill:#fff;}</style></defs><title>ufo</title><path class="cls-1" d="M671.05,63.35c-1.74,3.74-10.82,3.53-23.23.15-1-.28-2.1-.58-3.18-.91-3.32-1-6.85-2.21-10.5-3.61-3.15-1.21-6.41-2.57-9.71-4l-1-.44L622.38,54c-2.31-1.07-4.56-2.18-6.74-3.28-4.64-2.38-8.95-4.83-12.8-7.27-1-.64-2-1.28-3-1.91C588.56,33.93,582,26.75,583.83,22.87s12-3.49,25.6.51a14.77,14.77,0,0,0-2.5,3.35,1,1,0,0,0-.13.23c-1.73,3.72,7.72,11.78,21.09,18s25.63,8.22,27.36,4.49a1.6,1.6,0,0,0,.1-.23,15.14,15.14,0,0,0,.92-3.64C666.8,52.85,672.78,59.62,671.05,63.35Z" transform="translate(-45.62 -15.83)"/><path class="cls-1" d="M655,44.83a13.45,13.45,0,0,1-.87,3.39,1.43,1.43,0,0,1-.08.22c-1.65,3.46-13.25,1.59-25.92-4.18s-21.61-13.27-20-16.73a.94.94,0,0,1,.12-.22,13.72,13.72,0,0,1,2.37-3.11c5.64-5.16,16.79-5.77,27.41-.93C648.87,28.19,655.66,37.18,655,44.83Z" transform="translate(-45.62 -15.83)"/><path class="cls-1" d="M633.08,62.55c-.83,1.78-6.16,1.08-11.9-1.57s-9.75-6.25-8.93-8a1.34,1.34,0,0,1,.51-.55l0,0,1.56-1c2.17,1.12,4.43,2.23,6.73,3.3.36.18.73.34,1.08.5l1,.44c3.29,1.49,6.54,2.86,9.69,4.08l.32,2.05v0A1.29,1.29,0,0,1,633.08,62.55Z" transform="translate(-45.62 -15.83)"/><path class="cls-1" d="M597.11,65.48l-.47.55A3.28,3.28,0,0,1,597.11,65.48Z" transform="translate(-45.62 -15.83)"/><ellipse class="cls-2" cx="649.41" cy="36.37" rx="1.41" ry="6.89" transform="translate(39.07 343.27) rotate(-32.95)"/><ellipse class="cls-2" cx="611.82" cy="26.58" rx="3.27" ry="0.99" transform="translate(114.78 424.58) rotate(-45)"/><path class="cls-1" d="M602.84,44.45c-2.57,2.94-5.2,4.81-5.92,4.19s.63-3.26,3-6.1C600.84,43.17,601.82,43.81,602.84,44.45Z" transform="translate(-45.62 -15.83)"/><path class="cls-1" d="M647.82,64.5c-.71,3.81-2,6.75-2.87,6.59s-1.05-3.49-.33-7.42a.24.24,0,0,1,0-.08C645.72,63.92,646.78,64.22,647.82,64.5Z" transform="translate(-45.62 -15.83)"/><circle class="cls-1" cx="595.41" cy="1.77" r="1.77"/><polygon class="cls-1" points="595.41 1.77 591.62 7.87 592.94 8.55 595.41 1.77"/><path class="cls-1" d="M54.31,23l489.81-1.31c2.49,0,4.58,1.4,4.46,3h0c-.13,1.83-2.41,3.21-5.27,3.18Z" transform="translate(-45.62 -15.83)"/><path class="cls-1" d="M82.45,64.71l489.48-1.3c2.67,0,4.91,1.49,4.78,3.2h0c-.12,1.72-2.26,3-4.93,3Z" transform="translate(-45.62 -15.83)"/><path class="cls-1" d="M45.62,43.79,535.1,42.48c2.67,0,4.91,1.49,4.78,3.21h0c-.12,1.71-2.25,3-4.93,3Z" transform="translate(-45.62 -15.83)"/></svg>